# xmcd
# 
# Track frame offsets:
#     150
#     43350
#     69592
#     100568
#     132203
#     159996
#     181785
#     202687
# 
# Disc length: 2974
# 
# Revision: 1
# Processed by: cddbd v1.5.2PL0 Copyright (c) Steve Scherf et al.
# Submitted via: fre:ac v1.0.31
# 
DISCID=5f0b9c08
DTITLE=Ohio Players - Everybody Up and Bonus Tracks
DYEAR=1979
DGENRE=R&B
TTITLE0=Everybody Up
TTITLE1=Don't Say Goodbye
TTITLE2=Make Me Feel
TTITLE3=Say It
TTITLE4=Take da Funk Off, Fly
TTITLE5=Something Special
TTITLE6=Everybody Up [12" Promotional]
TTITLE7=Take Da Funk Off, Fly [7"]
EXTD=
EXTT0=
EXTT1=
EXTT2=
EXTT3=
EXTT4=
EXTT5=
EXTT6=
EXTT7=
PLAYORDER=
